<?xml version="1.0" encoding="UTF-8"?>
<svg xmlns="http://www.w3.org/2000/svg" xmlns:xlink="http://www.w3.org/1999/xlink" width="500pt" height="500pt" viewBox="0 0 500 500" version="1.1">
<g id="surface1645841">
<path style=" stroke:none;fill-rule:nonzero;fill:rgb(0%,0%,0%);fill-opacity:1;" d="M 349.023438 20 C 328.632812 20 310.976562 25.507812 298.75 30.9375 C 286.757812 26.914062 266.875 20.039062 243.007812 25 C 229.101562 27.421875 216.328125 33.164062 204.609375 41.953125 C 185.3125 32.65625 165.15625 26.953125 144.023438 26.015625 C 131.015625 25 78.007812 31.015625 58.984375 58.984375 C 51.992188 70 45 83.984375 41.992188 100.976562 C 38.984375 115.976562 38.984375 133.007812 43.984375 168.007812 C 46.992188 191.992188 51.015625 208.007812 60 240.976562 C 61.015625 243.984375 66.015625 260 81.015625 304.023438 C 83.984375 311.992188 90 326.992188 101.992188 340.976562 C 110 350.976562 118.007812 356.992188 128.007812 356.992188 C 141.015625 356.992188 150 348.007812 158.007812 338.007812 C 158.59375 337.34375 159.21875 336.601562 159.804688 335.9375 C 159.0625 337.109375 158.398438 338.398438 158.007812 340 C 156.015625 350 168.007812 358.007812 178.007812 361.992188 C 186.015625 365.976562 195 366.992188 201.992188 366.992188 C 210.976562 366.992188 218.007812 365 221.992188 364.023438 C 225.429688 362.851562 232.851562 359.648438 240.78125 354.375 C 241.132812 379.921875 241.367188 410.078125 241.992188 416.992188 C 245 443.007812 251.992188 460.976562 265 470.976562 C 275 478.984375 293.007812 480 294.023438 480 C 311.992188 480 340 468.007812 351.992188 449.023438 C 358.007812 440 360 431.992188 361.992188 420.976562 C 363.984375 415 365.976562 380 366.992188 373.007812 C 368.359375 361.953125 369.414062 351.054688 370.46875 340.46875 C 377.070312 342.1875 385.195312 344.023438 394.023438 344.023438 C 410 344.023438 431.015625 333.007812 435 330.976562 C 443.007812 325 458.984375 311.015625 451.992188 299.023438 C 448.007812 291.992188 441.992188 291.992188 426.992188 294.023438 C 426.992188 294.023438 403.007812 296.992188 400.976562 295.976562 C 399.53125 295.429688 397.304688 294.023438 394.804688 292.1875 C 400 284.140625 404.609375 276.171875 410 269.023438 C 421.992188 246.015625 429.023438 228.007812 434.023438 214.023438 C 443.007812 189.023438 448.007812 168.984375 450.976562 155 C 458.007812 125 460 111.015625 455.976562 95 C 448.007812 66.992188 418.984375 43.007812 406.992188 36.015625 C 398.984375 31.992188 379.023438 20 349.023438 20 Z M 349.023438 40 C 374.023438 40 391.015625 50 400 53.984375 C 411.015625 60 436.015625 80 438.007812 98.984375 C 439.023438 110 440 121.015625 433.007812 150 C 429.023438 163.984375 425 181.992188 415.976562 206.992188 C 410.976562 220.976562 405 238.007812 393.007812 259.023438 C 392.695312 259.53125 392.34375 260.078125 392.03125 260.625 C 393.203125 256.40625 394.023438 253.007812 394.023438 253.007812 C 396.015625 243.007812 396.015625 235 395 223.007812 C 393.984375 216.992188 393.007812 201.992188 393.007812 195.976562 C 393.007812 193.007812 395.976562 161.992188 396.992188 150.976562 C 398.007812 133.007812 386.992188 110.976562 384.023438 106.992188 C 369.023438 83.984375 361.015625 71.015625 345 58.007812 C 341.015625 54.609375 334.179688 48.945312 324.882812 43.242188 C 332.226562 41.445312 340.351562 40 349.023438 40 Z M 260.664062 44.101562 C 273.710938 44.414062 284.765625 48.007812 293.007812 51.015625 C 314.023438 58.007812 326.992188 68.984375 333.007812 73.984375 C 346.015625 85 353.007812 96.015625 368.007812 119.023438 C 369.101562 121.210938 371.953125 125.859375 374.21875 132.34375 C 353.75 130.46875 340.15625 137.65625 331.992188 145 C 320 155 320.976562 170 321.992188 180.976562 C 321.992188 188.984375 324.023438 199.023438 339.023438 233.007812 C 345 248.007812 350.976562 263.984375 356.992188 275 C 360.117188 281.210938 363.945312 286.914062 368.046875 291.992188 C 365.664062 293.203125 363.242188 294.765625 360.976562 296.992188 C 355 303.984375 353.984375 311.015625 351.992188 324.023438 C 350 334.023438 348.007812 355 346.992188 371.992188 C 346.992188 378.984375 344.023438 413.007812 343.007812 418.007812 C 340 428.007812 338.984375 433.007812 335 439.023438 C 328.007812 450 306.015625 459.023438 293.007812 458.007812 C 289.023438 458.007812 283.007812 458.007812 278.007812 454.023438 C 266.992188 446.015625 263.007812 428.007812 261.992188 414.023438 C 260.976562 404.023438 261.992188 331.992188 260 315.976562 C 258.984375 311.992188 258.007812 301.992188 250 295 C 246.640625 292.1875 239.6875 290.742188 233.125 289.765625 C 233.203125 286.40625 233.398438 283.046875 234.023438 280 C 235 273.984375 236.992188 270.976562 239.023438 265.976562 C 240 263.007812 241.992188 259.023438 244.023438 254.023438 C 253.007812 226.015625 250.976562 188.984375 245.976562 165.976562 C 245 163.984375 240.976562 148.007812 226.992188 139.023438 C 211.992188 130 195.976562 135 186.992188 138.007812 C 183.28125 139.023438 179.609375 140.625 175.9375 142.5 C 176.5625 138.320312 177.109375 134.101562 178.007812 130 C 181.992188 110 186.015625 93.007812 199.023438 76.015625 C 213.007812 58.984375 228.984375 48.007812 246.992188 45 C 251.757812 44.257812 256.328125 43.984375 260.664062 44.101562 Z M 137.1875 45.859375 C 139.53125 45.820312 141.523438 45.859375 143.007812 46.015625 C 158.632812 46.835938 173.59375 50.507812 188.4375 56.757812 C 186.601562 58.789062 184.765625 60.820312 183.007812 63.007812 C 166.015625 83.007812 161.992188 103.984375 158.007812 125 C 153.007812 150 151.992188 175.976562 155.976562 201.992188 L 154.023438 220.976562 C 153.007812 230.976562 150.976562 250 161.992188 270 C 165.859375 276.640625 170.117188 282.265625 174.804688 287.070312 C 164.648438 300.507812 153.867188 313.203125 143.007812 325 C 136.992188 331.992188 131.992188 336.992188 128.007812 336.992188 C 126.992188 336.992188 123.007812 335 116.992188 328.007812 C 105.976562 316.015625 101.992188 303.007812 100 298.007812 C 88.007812 261.992188 81.015625 238.984375 80 235.976562 C 71.992188 203.984375 68.007812 188.007812 63.984375 165 C 58.984375 133.007812 58.984375 116.992188 61.992188 104.023438 C 65 90 70 78.984375 75 71.015625 C 87.265625 51.757812 120.9375 46.289062 137.1875 45.859375 Z M 366.640625 151.25 C 369.84375 151.25 373.320312 151.640625 376.992188 152.421875 C 376.875 161.757812 373.007812 191.054688 373.007812 195 C 373.007812 203.007812 375 218.984375 375 225 C 376.015625 236.015625 376.015625 241.992188 375 250 C 375 250 373.515625 257.148438 371.992188 262.226562 C 367.34375 251.71875 362.1875 239.179688 355.976562 225 C 340.976562 191.015625 340 184.023438 340 179.023438 C 340 171.992188 340 163.007812 345.976562 159.023438 C 351.601562 154.023438 358.4375 151.328125 366.640625 151.25 Z M 211.40625 154.179688 C 213.398438 154.414062 215.234375 155 216.992188 155.976562 C 225 160 226.992188 170 226.992188 170 C 231.992188 191.992188 233.984375 225 225.976562 246.992188 C 225 250.976562 223.007812 253.984375 221.992188 256.992188 C 220 261.992188 218.007812 266.992188 215.976562 275.976562 C 215.46875 279.6875 215.234375 283.359375 215.117188 287.03125 C 208.203125 285.585938 201.679688 283.125 196.992188 280 C 188.984375 276.015625 183.007812 268.984375 179.023438 260.976562 C 171.992188 245.976562 173.007812 231.992188 174.023438 224.023438 L 175.976562 200.976562 C 174.570312 189.726562 173.90625 178.4375 174.0625 167.226562 C 178.671875 163.28125 184.6875 159.257812 193.007812 156.992188 C 199.023438 155.507812 205.585938 153.4375 211.40625 154.179688 Z M 358.867188 160.898438 C 356.25 161.015625 353.476562 161.484375 351.992188 161.992188 C 348.007812 163.007812 346.992188 163.007812 345.976562 165 C 345 166.992188 348.007812 170 349.023438 171.992188 C 350 171.992188 353.007812 175 356.992188 174.023438 C 360 173.007812 361.992188 171.015625 363.007812 170 C 364.023438 168.984375 368.007812 163.984375 365 161.992188 C 363.984375 160.976562 361.484375 160.742188 358.867188 160.898438 Z M 209.140625 168.164062 C 208.046875 168.242188 206.992188 168.515625 205.976562 169.023438 C 205 169.023438 203.007812 170 201.992188 171.992188 C 200.976562 173.984375 201.992188 175.976562 203.007812 176.992188 C 205 180 208.007812 183.007812 213.007812 183.007812 C 214.023438 183.007812 218.007812 183.007812 220.976562 180 C 220.976562 180 224.023438 176.992188 224.023438 174.023438 C 223.007812 171.992188 221.015625 171.015625 218.007812 170 C 215.742188 169.257812 212.382812 167.929688 209.140625 168.164062 Z M 190.742188 299.023438 C 196.875 302.304688 204.257812 304.960938 212.34375 306.796875 C 210.195312 311.09375 207.109375 314.648438 204.023438 316.992188 C 196.992188 321.992188 188.007812 325 179.023438 326.992188 C 176.992188 326.992188 176.015625 328.007812 174.023438 328.007812 C 169.179688 329.375 164.492188 330.898438 161.289062 334.21875 C 171.09375 323.320312 180.9375 311.289062 190.742188 299.023438 Z M 383.554688 307.03125 C 387.929688 310.3125 392.226562 312.734375 395.976562 314.023438 C 401.992188 316.015625 406.992188 316.015625 425 314.023438 C 421.992188 316.992188 413.007812 321.992188 400 324.023438 C 391.640625 324.84375 381.25 322.851562 372.8125 320.429688 C 373.59375 314.765625 374.492188 311.523438 375.976562 310 C 376.523438 309.492188 379.84375 308.476562 383.554688 307.03125 Z M 232.96875 310.039062 C 235.039062 310.390625 236.679688 310.664062 236.992188 310.976562 C 238.984375 313.007812 240 318.007812 240 320 C 240.117188 321.71875 240.195312 326.054688 240.273438 329.0625 C 232.03125 338.710938 218.789062 344.0625 215.976562 345 C 211.992188 346.992188 200 348.984375 188.007812 345 C 198.007812 341.992188 208.007812 339.023438 215.976562 333.007812 C 222.96875 328.007812 228.984375 320.039062 232.96875 310.039062 Z M 232.96875 310.039062 "/>
</g>
</svg>
